<svg width="22" height="19" viewBox="0 0 22 19" fill="none" xmlns="http://www.w3.org/2000/svg">
<path fill-rule="evenodd" clip-rule="evenodd" d="M7.22132 17.735L17.3429 17.735C18.2707 17.735 19.0298 17.0665 19.0298 16.2495L19.0298 5.85104L17.3429 5.85104L17.3429 16.2495L7.22132 16.2495L7.22132 17.735ZM4.69094 14.764L13.969 14.764C14.8968 14.764 15.6559 14.0955 15.6559 13.2785L15.6559 2.88006C15.6559 2.06304 14.8968 1.39457 13.969 1.39457L4.69094 1.39457C3.76313 1.39457 3.00402 2.06304 3.00402 2.88006L3.00402 13.2785C3.00402 14.0955 3.76313 14.764 4.69094 14.764ZM13.969 2.88006L4.69094 2.88006L4.69094 13.2785L13.969 13.2785L13.969 2.88006Z" fill="#39495A"/>
</svg>
