<svg width="21" height="20" viewBox="0 0 21 20" fill="none" xmlns="http://www.w3.org/2000/svg">
<path fill-rule="evenodd" clip-rule="evenodd" d="M10.5 0.375C5.18438 0.375 0.875 4.68438 0.875 10C0.875 15.3156 5.18438 19.625 10.5 19.625C15.8156 19.625 20.125 15.3156 20.125 10C20.125 4.68438 15.8156 0.375 10.5 0.375ZM14.672 8.3725C14.7488 8.28469 14.8073 8.1824 14.844 8.07165C14.8807 7.9609 14.8949 7.84392 14.8857 7.72761C14.8766 7.6113 14.8442 7.49799 14.7906 7.39436C14.737 7.29073 14.6632 7.19887 14.5736 7.12417C14.484 7.04948 14.3803 6.99347 14.2687 6.95943C14.1571 6.92539 14.0398 6.91402 13.9238 6.92597C13.8077 6.93793 13.6952 6.97298 13.5929 7.02905C13.4906 7.08513 13.4005 7.1611 13.328 7.2525L9.5655 11.7666L7.61862 9.81888C7.4536 9.65949 7.23257 9.57129 7.00315 9.57329C6.77373 9.57528 6.55427 9.6673 6.39203 9.82953C6.2298 9.99177 6.13778 10.2112 6.13579 10.4406C6.13379 10.6701 6.22199 10.8911 6.38138 11.0561L9.00638 13.6811C9.09235 13.767 9.19528 13.8341 9.30861 13.8781C9.42194 13.922 9.54319 13.9418 9.66461 13.9363C9.78603 13.9308 9.90498 13.9 10.0139 13.846C10.1227 13.792 10.2192 13.7159 10.297 13.6225L14.672 8.3725Z" fill="#365000"/>
</svg>
