<svg width="25" height="25" viewBox="0 0 25 25" fill="none" xmlns="http://www.w3.org/2000/svg">
<path d="M12.5 25C5.59644 25 -3.01764e-07 19.4036 0 12.5C3.01764e-07 5.59644 5.59644 -3.01764e-07 12.5 0C19.4036 3.01764e-07 25 5.59644 25 12.5C25 19.4036 19.4036 25 12.5 25Z" fill="#D90026"/>
<path d="M24.213 8.125C22.4396 3.37917 17.8644 2.34486e-07 12.5 0C7.13559 -2.34486e-07 2.56043 3.37916 0.787011 8.125L24.213 8.125Z" fill="black"/>
<path d="M0.787011 16.875C2.56043 21.6208 7.13559 25 12.5 25C17.8644 25 22.4396 21.6208 24.213 16.875L0.787011 16.875Z" fill="#FFDB44"/>
</svg>
