<svg width="5" height="17" viewBox="0 0 5 17" fill="none" xmlns="http://www.w3.org/2000/svg">
<path fill-rule="evenodd" clip-rule="evenodd" d="M2.50016 4.66659C3.55433 4.66659 4.41683 3.80409 4.41683 2.74992C4.41683 1.69575 3.55433 0.833252 2.50016 0.833252C1.446 0.833252 0.583496 1.69575 0.583496 2.74992C0.583496 3.80409 1.446 4.66659 2.50016 4.66659ZM2.50016 6.58325C1.446 6.58325 0.583496 7.44575 0.583496 8.49992C0.583496 9.55409 1.446 10.4166 2.50016 10.4166C3.55433 10.4166 4.41683 9.55409 4.41683 8.49992C4.41683 7.44575 3.55433 6.58325 2.50016 6.58325ZM0.583496 14.2499C0.583496 13.1958 1.446 12.3333 2.50016 12.3333C3.55433 12.3333 4.41683 13.1958 4.41683 14.2499C4.41683 15.3041 3.55433 16.1666 2.50016 16.1666C1.446 16.1666 0.583496 15.3041 0.583496 14.2499Z" fill="#3A4F61"/>
</svg>
