<svg width="25" height="25" viewBox="0 0 25 25" fill="none" xmlns="http://www.w3.org/2000/svg">
<path d="M25 12.5C25 19.4036 19.4036 25 12.5 25C5.59644 25 0 19.4036 0 12.5C0 5.59644 5.59644 0 12.5 0C19.4036 0 25 5.59644 25 12.5Z" fill="#6EA644"/>
<path d="M12.8125 5L23.125 12.5L12.8125 20L2.5 12.5L12.8125 5Z" fill="#FFDB44"/>
<path d="M17.1875 12.5C17.1875 14.9162 15.2287 16.875 12.8125 16.875C10.3963 16.875 8.4375 14.9162 8.4375 12.5C8.4375 10.0838 10.3963 8.125 12.8125 8.125C15.2287 8.125 17.1875 10.0838 17.1875 12.5Z" fill="#0051B5"/>
<path d="M8.85852 10.625C8.58856 11.1933 8.4375 11.829 8.4375 12.5C12.9375 11.75 15.5469 13.9583 16.2891 15.1563C16.733 14.5762 17.0349 13.8819 17.1432 13.125C14.6432 10.625 10.5784 10.4167 8.85852 10.625Z" fill="white"/>
</svg>
