<svg width="25" height="25" viewBox="0 0 25 25" fill="none" xmlns="http://www.w3.org/2000/svg">
<path d="M15 0.25H10C5.125 1.25 1.25 5.08333 0.25 10V15C1.25 19.9167 5.125 23.75 10 24.75H15C19.9167 23.75 23.75 19.875 24.75 15V10C23.75 5.08333 19.875 1.25 15 0.25Z" fill="white"/>
<path d="M24.6579 15.4167C24.8859 14.4612 25.0007 13.4823 25 12.5C25 11.4958 24.8817 10.5192 24.6579 9.58334H15.4167V0.342086C14.4612 0.114159 13.4823 -0.00065656 12.5 2.82395e-06C11.4958 2.82395e-06 10.5192 0.118336 9.58334 0.342086V9.58334H0.342086C0.114159 10.5388 -0.00065656 11.5177 2.82395e-06 12.5C2.82395e-06 13.5042 0.118336 14.4808 0.342086 15.4167H9.58334V24.6579C10.5388 24.8859 11.5177 25.0007 12.5 25C13.5042 25 14.4808 24.8817 15.4167 24.6579V15.4167H24.6579Z" fill="#CE1124"/>
</svg>
