<svg width="25" height="25" viewBox="0 0 25 25" fill="none" xmlns="http://www.w3.org/2000/svg">
<circle cx="12.5" cy="12.5" r="12.5" fill="#1B252E"/>
<path d="M11.865 16.1765H9.50928V9.22461H11.9126C12.6028 9.22461 13.1957 9.36378 13.6913 9.64213C14.1891 9.91821 14.5716 10.3154 14.8386 10.8336C15.1056 11.3518 15.2391 11.9719 15.2391 12.6938C15.2391 13.4179 15.1045 14.0402 14.8352 14.5607C14.5682 15.0812 14.1823 15.4806 13.6777 15.759C13.1753 16.0373 12.5711 16.1765 11.865 16.1765ZM10.7686 15.0869H11.8039C12.2882 15.0869 12.6922 14.9986 13.0158 14.8221C13.3394 14.6433 13.5826 14.3774 13.7456 14.0244C13.9085 13.6691 13.99 13.2256 13.99 12.6938C13.99 12.162 13.9085 11.7207 13.7456 11.3699C13.5826 11.0169 13.3416 10.7533 13.0226 10.579C12.7057 10.4025 12.312 10.3142 11.8413 10.3142H10.7686V15.0869Z" fill="#4F687E"/>
</svg>
