<svg width="19" height="19" viewBox="0 0 19 19" fill="none" xmlns="http://www.w3.org/2000/svg">
<circle cx="9.5" cy="9.5" r="9.5" fill="#1B2834"/>
<path d="M9.74797 5H11V10.5954C11 11.1015 10.8943 11.5344 10.6829 11.894C10.4743 12.2537 10.1802 12.5286 9.80081 12.7187C9.42141 12.9062 8.97696 13 8.46748 13C7.99865 13 7.57724 12.9191 7.20325 12.7572C6.83198 12.5954 6.53794 12.3603 6.32114 12.052C6.10705 11.7412 6 11.3635 6 10.9191H7.24797C7.24797 11.1374 7.30081 11.3263 7.4065 11.4855C7.51491 11.6448 7.6626 11.7694 7.84959 11.8593C8.0393 11.9467 8.2561 11.9904 8.5 11.9904C8.76558 11.9904 8.99051 11.9377 9.1748 11.8324C9.36179 11.7245 9.50406 11.5665 9.60163 11.3584C9.69919 11.1503 9.74797 10.896 9.74797 10.5954V5Z" fill="white"/>
</svg>
