<svg width="744" height="326" viewBox="0 0 744 326" fill="none" xmlns="http://www.w3.org/2000/svg">
<rect width="744" height="326" fill="#0C1218"/>
<path d="M139.81 143.891L133.485 151.096L141.331 167.266L125 151.096L137.968 127L171.83 160.942V201.848L159.903 192.482L152.138 158.861L139.81 143.891Z" fill="#88C800"/>
<path d="M179.916 170.948V151.016L204.091 127.16L216.819 151.016L200.649 167.186L208.254 151.016L201.93 143.891L179.916 170.948Z" fill="#88C800"/>
<rect x="513.687" y="179.02" width="35.3618" height="9.90131" fill="white"/>
<rect x="513.687" y="159.217" width="35.3618" height="9.90131" fill="white"/>
<rect x="513.687" y="139.414" width="35.3618" height="9.90131" fill="white"/>
<path fill-rule="evenodd" clip-rule="evenodd" d="M298.598 189.21C302.159 188.46 305.577 187.24 308.854 185.552V159.525H289.126V169.655H298.171V177.744C297.126 178.307 295.725 178.87 293.969 179.432C292.212 179.948 290.123 180.206 287.701 180.206C285.327 180.206 283.167 179.807 281.22 179.01C279.321 178.213 277.683 177.111 276.306 175.704C274.929 174.25 273.861 172.562 273.101 170.639C272.389 168.67 272.033 166.513 272.033 164.168C272.033 161.87 272.389 159.736 273.101 157.766C273.861 155.797 274.929 154.109 276.306 152.702C277.683 151.248 279.321 150.123 281.22 149.325C283.167 148.528 285.327 148.129 287.701 148.129C290.55 148.129 292.924 148.528 294.823 149.325C296.722 150.123 298.432 151.295 299.951 152.842L307.785 144.401C305.221 142.056 302.23 140.415 298.812 139.477C295.44 138.492 291.737 138 287.701 138C283.76 138 280.128 138.61 276.805 139.829C273.481 141.048 270.608 142.807 268.187 145.105C265.765 147.356 263.866 150.099 262.489 153.335C261.16 156.571 260.495 160.182 260.495 164.168C260.495 168.154 261.16 171.765 262.489 175.001C263.866 178.236 265.765 181.003 268.187 183.301C270.608 185.552 273.481 187.287 276.805 188.507C280.128 189.726 283.76 190.335 287.701 190.335C291.405 190.335 295.037 189.96 298.598 189.21ZM330.029 153.335C328.699 156.571 328.035 160.182 328.035 164.168C328.035 168.154 328.699 171.765 330.029 175.001C331.406 178.236 333.305 181.003 335.726 183.301C338.148 185.552 341.02 187.287 344.344 188.507C347.668 189.726 351.3 190.335 355.241 190.335C359.182 190.335 362.814 189.726 366.137 188.507C369.461 187.287 372.333 185.552 374.755 183.301C377.176 181.003 379.052 178.236 380.381 175.001C381.758 171.765 382.447 168.154 382.447 164.168C382.447 160.182 381.758 156.571 380.381 153.335C379.052 150.099 377.176 147.356 374.755 145.105C372.333 142.807 369.461 141.048 366.137 139.829C362.814 138.61 359.182 138 355.241 138C351.3 138 347.668 138.61 344.344 139.829C341.02 141.048 338.148 142.807 335.726 145.105C333.305 147.356 331.406 150.099 330.029 153.335ZM340.641 170.639C339.928 168.67 339.572 166.513 339.572 164.168C339.572 161.87 339.928 159.736 340.641 157.766C341.4 155.797 342.469 154.109 343.845 152.702C345.222 151.248 346.86 150.123 348.76 149.325C350.706 148.528 352.867 148.129 355.241 148.129C357.615 148.129 359.751 148.528 361.65 149.325C363.597 150.123 365.259 151.248 366.636 152.702C368.013 154.109 369.057 155.797 369.77 157.766C370.529 159.736 370.909 161.87 370.909 164.168C370.909 166.513 370.529 168.67 369.77 170.639C369.057 172.562 368.013 174.25 366.636 175.704C365.259 177.111 363.597 178.213 361.65 179.01C359.751 179.807 357.615 180.206 355.241 180.206C352.867 180.206 350.706 179.807 348.76 179.01C346.86 178.213 345.222 177.111 343.845 175.704C342.469 174.25 341.4 172.562 340.641 170.639ZM418.7 139.266H427.887L449.823 189.069H437.288L432.944 178.518H413.358L409.157 189.069H396.907L418.7 139.266ZM422.973 153.757L416.848 169.232H429.169L422.973 153.757ZM455.835 148.974H470.222V189.069H481.332V148.974H495.718V139.266H455.835V148.974ZM587.101 139.266H570.436V189.069H588.597C592.348 189.069 595.932 188.53 599.351 187.451C602.769 186.373 605.784 184.802 608.396 182.738C611.007 180.628 613.073 178.049 614.592 175.001C616.159 171.906 616.942 168.341 616.942 164.308C616.942 159.76 616.135 155.891 614.521 152.702C612.954 149.513 610.817 146.934 608.111 144.964C605.405 142.947 602.223 141.494 598.567 140.603C594.959 139.712 591.137 139.266 587.101 139.266ZM587.315 178.94H581.546V149.396H588.098C590.425 149.396 592.632 149.7 594.722 150.31C596.858 150.873 598.71 151.74 600.277 152.913C601.844 154.085 603.078 155.586 603.98 157.415C604.93 159.197 605.405 161.307 605.405 163.746C605.405 166.559 604.93 168.951 603.98 170.921C603.078 172.843 601.82 174.414 600.206 175.634C598.591 176.806 596.668 177.65 594.437 178.166C592.253 178.682 589.879 178.94 587.315 178.94Z" fill="white"/>
</svg>
