<svg width="99" height="15" viewBox="0 0 99 15" fill="none" xmlns="http://www.w3.org/2000/svg">
<path d="M2.98032 3.38503L1.70764 4.82888L3.28641 8.06952L0 4.82888L2.60979 0L9.42425 6.80214V15L7.02389 13.123L5.46123 6.38503L2.98032 3.38503Z" fill="#88C800"/>
<path d="M11.0513 8.80738V4.81273L15.9164 0.0319824L18.4779 4.81273L15.2237 8.05337L16.7542 4.81273L15.4815 3.38492L11.0513 8.80738Z" fill="#88C800"/>
<rect x="78.2207" y="10.425" width="7.11632" height="1.98428" fill="white"/>
<rect x="78.2207" y="6.4563" width="7.11632" height="1.98428" fill="white"/>
<rect x="78.2207" y="2.48779" width="7.11632" height="1.98428" fill="white"/>
<path fill-rule="evenodd" clip-rule="evenodd" d="M34.9355 12.4671C35.6521 12.3167 36.3401 12.0724 36.9994 11.7341V6.51809H33.0293V8.54808H34.8495V10.1693C34.6393 10.282 34.3574 10.3948 34.0039 10.5076C33.6503 10.611 33.2299 10.6627 32.7426 10.6627C32.2649 10.6627 31.8301 10.5828 31.4384 10.423C31.0561 10.2632 30.7265 10.0424 30.4494 9.76044C30.1723 9.4691 29.9573 9.13077 29.8044 8.74544C29.6611 8.35072 29.5895 7.91841 29.5895 7.4485C29.5895 6.98799 29.6611 6.56038 29.8044 6.16566C29.9573 5.77094 30.1723 5.4326 30.4494 5.15066C30.7265 4.85932 31.0561 4.63376 31.4384 4.47399C31.8301 4.31423 32.2649 4.23434 32.7426 4.23434C33.3159 4.23434 33.7937 4.31423 34.1759 4.47399C34.5581 4.63376 34.9021 4.86872 35.2078 5.17885L36.7844 3.48719C36.2684 3.01728 35.6665 2.68835 34.9785 2.50039C34.3001 2.30303 33.5548 2.20435 32.7426 2.20435C31.9495 2.20435 31.2186 2.32652 30.5497 2.57087C29.8809 2.81522 29.3028 3.16765 28.8155 3.62816C28.3282 4.07927 27.946 4.62906 27.6689 5.27753C27.4013 5.92601 27.2676 6.64966 27.2676 7.4485C27.2676 8.24734 27.4013 8.971 27.6689 9.61947C27.946 10.2679 28.3282 10.8224 28.8155 11.2829C29.3028 11.734 29.8809 12.0818 30.5497 12.3261C31.2186 12.5705 31.9495 12.6927 32.7426 12.6927C33.4879 12.6927 34.2189 12.6175 34.9355 12.4671ZM41.2607 5.27753C40.9932 5.92601 40.8594 6.64966 40.8594 7.4485C40.8594 8.24734 40.9932 8.971 41.2607 9.61947C41.5378 10.2679 41.92 10.8224 42.4073 11.2829C42.8946 11.734 43.4727 12.0818 44.1416 12.3261C44.8104 12.5705 45.5414 12.6927 46.3345 12.6927C47.1275 12.6927 47.8585 12.5705 48.5273 12.3261C49.1962 12.0818 49.7743 11.734 50.2616 11.2829C50.7489 10.8224 51.1263 10.2679 51.3939 9.61947C51.6709 8.971 51.8095 8.24734 51.8095 7.4485C51.8095 6.64966 51.6709 5.92601 51.3939 5.27753C51.1263 4.62906 50.7489 4.07927 50.2616 3.62816C49.7743 3.16765 49.1962 2.81522 48.5273 2.57087C47.8585 2.32652 47.1275 2.20435 46.3345 2.20435C45.5414 2.20435 44.8104 2.32652 44.1416 2.57087C43.4727 2.81522 42.8946 3.16765 42.4073 3.62816C41.92 4.07927 41.5378 4.62906 41.2607 5.27753ZM43.3963 8.74544C43.253 8.35072 43.1813 7.91841 43.1813 7.4485C43.1813 6.98799 43.253 6.56038 43.3963 6.16566C43.5492 5.77094 43.7642 5.4326 44.0413 5.15066C44.3183 4.85932 44.648 4.63376 45.0302 4.47399C45.422 4.31423 45.8567 4.23434 46.3345 4.23434C46.8122 4.23434 47.2422 4.31423 47.6244 4.47399C48.0161 4.63376 48.3506 4.85932 48.6277 5.15066C48.9048 5.4326 49.115 5.77094 49.2583 6.16566C49.4112 6.56038 49.4876 6.98799 49.4876 7.4485C49.4876 7.91841 49.4112 8.35072 49.2583 8.74544C49.115 9.13077 48.9048 9.4691 48.6277 9.76044C48.3506 10.0424 48.0161 10.2632 47.6244 10.423C47.2422 10.5828 46.8122 10.6627 46.3345 10.6627C45.8567 10.6627 45.422 10.5828 45.0302 10.423C44.648 10.2632 44.3183 10.0424 44.0413 9.76044C43.7642 9.4691 43.5492 9.13077 43.3963 8.74544ZM59.1052 2.4581H60.9541L65.3685 12.4389H62.846L61.9717 10.3243H58.0303L57.1847 12.4389H54.7195L59.1052 2.4581ZM59.9652 5.36212L58.7326 8.4635H61.2121L59.9652 5.36212ZM66.5784 4.40351H69.4736V12.4389H71.7095V4.40351H74.6046V2.4581H66.5784V4.40351ZM92.9948 2.4581H89.6409V12.4389H93.2957C94.0506 12.4389 94.772 12.3308 95.4599 12.1147C96.1479 11.8985 96.7547 11.5837 97.2802 11.1702C97.8057 10.7472 98.2214 10.2303 98.5271 9.61947C98.8424 8.99919 99.0001 8.28494 99.0001 7.4767C99.0001 6.56508 98.8377 5.78973 98.5128 5.15066C98.1975 4.51159 97.7675 3.99469 97.2229 3.59997C96.6782 3.19585 96.038 2.90451 95.3023 2.72594C94.5761 2.54738 93.8069 2.4581 92.9948 2.4581ZM93.0378 10.4089H91.8768V4.48809H93.1954C93.6636 4.48809 94.1079 4.54918 94.5283 4.67136C94.9583 4.78413 95.331 4.958 95.6463 5.19295C95.9616 5.4279 96.21 5.72864 96.3916 6.09517C96.5827 6.4523 96.6782 6.87522 96.6782 7.36392C96.6782 7.92781 96.5827 8.40711 96.3916 8.80183C96.21 9.18716 95.9568 9.50199 95.6319 9.74635C95.3071 9.9813 94.9201 10.1505 94.471 10.2538C94.0315 10.3572 93.5537 10.4089 93.0378 10.4089Z" fill="white"/>
</svg>
