<svg width="22" height="23" viewBox="0 0 22 23" fill="none" xmlns="http://www.w3.org/2000/svg">
<path d="M11 0.666748C5.01999 0.666748 0.166656 5.52008 0.166656 11.5001C0.166656 17.4801 5.01999 22.3334 11 22.3334C16.98 22.3334 21.8333 17.4801 21.8333 11.5001C21.8333 5.52008 16.98 0.666748 11 0.666748ZM4.07749 16.6784C2.98332 15.2376 2.33332 13.4501 2.33332 11.5001C2.33332 9.55008 2.98332 7.76258 4.07749 6.32175C4.8814 6.92468 5.53389 7.70651 5.98329 8.6053C6.43269 9.5041 6.66666 10.4952 6.66666 11.5001C6.66666 12.505 6.43269 13.4961 5.98329 14.3949C5.53389 15.2937 4.8814 16.0755 4.07749 16.6784ZM11 20.1667C8.95249 20.1667 7.06749 19.4517 5.58332 18.2601C7.56582 16.6676 8.83332 14.2409 8.83332 11.5001C8.83332 8.75925 7.56582 6.33258 5.58332 4.74008C7.06749 3.54841 8.95249 2.83341 11 2.83341C13.0475 2.83341 14.9325 3.54841 16.4167 4.74008C14.4342 6.33258 13.1667 8.75925 13.1667 11.5001C13.1667 14.2409 14.4342 16.6676 16.4167 18.2601C14.8818 19.4956 12.9703 20.1684 11 20.1667ZM17.9225 16.6784C17.1186 16.0755 16.4661 15.2937 16.0167 14.3949C15.5673 13.4961 15.3333 12.505 15.3333 11.5001C15.3333 10.4952 15.5673 9.5041 16.0167 8.6053C16.4661 7.70651 17.1186 6.92468 17.9225 6.32175C19.0167 7.76258 19.6667 9.55008 19.6667 11.5001C19.6667 13.4501 19.0167 15.2376 17.9225 16.6784Z" fill="#39495A"/>
</svg>
