<svg width="22" height="23" viewBox="0 0 22 23" fill="none" xmlns="http://www.w3.org/2000/svg">
<path d="M11 0.666748C5.02002 0.666748 0.166687 5.52008 0.166687 11.5001C0.166687 17.4801 5.02002 22.3334 11 22.3334C16.98 22.3334 21.8334 17.4801 21.8334 11.5001C21.8334 5.52008 16.98 0.666748 11 0.666748ZM12.0834 2.90925C15.4092 3.32091 18.1175 5.63925 19.1684 8.71591L12.0834 4.62091V2.90925ZM6.66669 4.00341C7.94502 3.25591 10.2742 2.85508 9.91669 2.89841V10.8609L6.66669 12.7351V4.00341ZM3.01585 14.8584C2.58252 13.8184 2.33335 12.6917 2.33335 11.5001C2.33335 9.31175 3.15669 7.31841 4.50002 5.79091V14.0026L3.01585 14.8584ZM4.11002 16.7326L11 12.7459L14.25 14.6201L6.68835 18.9859C5.68403 18.4188 4.80654 17.6519 4.11002 16.7326ZM11 20.1667C10.415 20.1667 9.84085 20.1017 9.28835 19.9934L16.4167 15.8767L17.89 16.7217C16.3084 18.8126 13.8167 20.1667 11 20.1667ZM12.0834 10.8717V7.12341L19.6667 11.5109C19.6667 12.7026 19.4175 13.8292 18.9842 14.8584L12.0834 10.8717Z" fill="#39495A"/>
</svg>
