<svg width="22" height="16" viewBox="0 0 22 16" fill="none" xmlns="http://www.w3.org/2000/svg">
<path d="M21.3783 12.4309L20.1975 4.13258C20.0498 3.10041 19.5345 2.15621 18.7464 1.47355C17.9583 0.79089 16.9502 0.415632 15.9075 0.416751H6.0925C3.93667 0.416751 2.10584 1.99842 1.8025 4.13258L0.621672 12.4309C0.539395 13.004 0.639631 13.5885 0.908167 14.1014C1.1767 14.6144 1.59991 15.0298 2.11777 15.2887C2.63563 15.5477 3.22187 15.637 3.79335 15.544C4.36483 15.4511 4.89255 15.1806 5.30167 14.7709L7.75001 12.3334H14.25L16.6875 14.7709C17.2075 15.2909 17.9117 15.5834 18.6375 15.5834C20.3275 15.5834 21.6167 14.0993 21.3783 12.4309ZM19.1033 13.2109C19.0474 13.2767 18.9776 13.3292 18.8989 13.3648C18.8202 13.4004 18.7347 13.4181 18.6483 13.4168C18.4858 13.4168 18.3342 13.3518 18.2258 13.2434L15.1492 10.1668H6.85084L3.77417 13.2434C3.66584 13.3518 3.51417 13.4168 3.35167 13.4168C3.26534 13.4181 3.17977 13.4004 3.1011 13.3648C3.02244 13.3292 2.95262 13.2767 2.89667 13.2109C2.8383 13.1475 2.79526 13.0716 2.77084 12.989C2.74643 12.9063 2.74129 12.8192 2.75584 12.7343L3.93667 4.43592C4.09917 3.38508 5.02 2.58342 6.0925 2.58342H15.9075C16.98 2.58342 17.9008 3.38508 18.0525 4.44675L19.2333 12.7451C19.2658 12.9618 19.1792 13.1134 19.1033 13.2109Z" fill="#365000"/>
</svg>
