<svg width="22" height="22" viewBox="0 0 22 22" fill="none" xmlns="http://www.w3.org/2000/svg">
<path d="M11 0.166748C5.01999 0.166748 0.166656 5.02008 0.166656 11.0001C0.166656 16.9801 5.01999 21.8334 11 21.8334C16.98 21.8334 21.8333 16.9801 21.8333 11.0001C21.8333 5.02008 16.98 0.166748 11 0.166748ZM3.66582 6.39591C4.60832 7.33841 5.25832 8.55175 5.48582 9.91675H2.40916C2.57095 8.66665 2.99951 7.46593 3.66582 6.39591ZM2.40916 12.0834H5.48582C5.26243 13.4185 4.62589 14.6499 3.66582 15.6042C2.99951 14.5342 2.57095 13.3335 2.40916 12.0834ZM9.91666 19.5909C8.04249 19.3526 6.35249 18.5076 5.05249 17.2726C6.50128 15.8989 7.42798 14.0647 7.67416 12.0834H9.91666V19.5909ZM9.91666 9.91675H7.67416C7.42415 7.93122 6.49389 6.09365 5.04166 4.71675C6.38137 3.45084 8.08834 2.64288 9.91666 2.40925V9.91675ZM19.5908 9.91675H16.5142C16.7417 8.55175 17.3917 7.33841 18.3342 6.39591C18.9842 7.44675 19.4283 8.63841 19.5908 9.91675ZM12.0833 2.40925C13.9575 2.64758 15.6475 3.48175 16.9583 4.71675C15.5061 6.09365 14.5758 7.93122 14.3258 9.91675H12.0833V2.40925ZM12.0833 19.5909V12.0834H14.3258C14.5767 14.0632 15.5026 15.896 16.9475 17.2726C15.6141 18.5433 13.9101 19.3555 12.0833 19.5909ZM18.3342 15.6042C17.376 14.6486 16.7398 13.4178 16.5142 12.0834H19.5908C19.429 13.3335 19.0005 14.5342 18.3342 15.6042Z" fill="#39495A"/>
</svg>
