<svg width="23" height="24" viewBox="0 0 23 24" fill="none" xmlns="http://www.w3.org/2000/svg">
<path d="M20.1467 1.69743C17.6117 -0.837566 12.975 -0.3284 9.80085 2.84577C8.06751 4.5791 7.07085 7.03827 7.04918 8.76077C7.02751 10.4724 7.33085 12.9749 5.58668 14.7191L0.993347 19.3124L2.53168 20.8508L7.12501 16.2574C8.86918 14.5133 11.3717 14.8166 13.0833 14.7949C14.795 14.7733 17.265 13.7766 18.9983 12.0433C22.1617 8.8691 22.6817 4.23243 20.1467 1.69743ZM10.18 11.6533C8.52251 9.99577 9.04251 6.6591 11.3283 4.37327C13.6142 2.08743 16.94 1.56743 18.6083 3.22493C20.2658 4.88243 19.7458 8.2191 17.46 10.5049C15.1742 12.7908 11.8483 13.3108 10.18 11.6533ZM18.5 17.4166C19.0742 17.4166 19.6267 17.6441 20.0275 18.0558C20.8725 18.9008 20.8725 20.2766 20.0275 21.1216C19.6267 21.5224 19.0742 21.7499 18.5 21.7499C17.9258 21.7499 17.3733 21.5224 16.9725 21.1108C16.1275 20.2658 16.1275 18.8899 16.9725 18.0449C17.3733 17.6441 17.9258 17.4166 18.5 17.4166ZM18.5 15.2499C17.642 15.2482 16.8028 15.5014 16.0889 15.9773C15.375 16.4532 14.8185 17.1305 14.4901 17.9232C14.1616 18.7158 14.076 19.5882 14.2441 20.4296C14.4122 21.271 14.8264 22.0435 15.4342 22.6491C16.2792 23.4941 17.395 23.9166 18.5 23.9166C19.358 23.9183 20.1972 23.6652 20.9111 23.1892C21.625 22.7133 22.1815 22.036 22.51 21.2434C22.8384 20.4507 22.924 19.5784 22.7559 18.737C22.5878 17.8956 22.1736 17.1231 21.5658 16.5174C21.1632 16.1151 20.6852 15.796 20.1591 15.5785C19.633 15.361 19.0693 15.2494 18.5 15.2499Z" fill="#39495A"/>
</svg>
