<svg width="16" height="20" viewBox="0 0 16 20" fill="none" xmlns="http://www.w3.org/2000/svg">
<path d="M2.58332 18.6667C2.58332 19.2625 3.07082 19.75 3.66666 19.75H12.3333C12.9292 19.75 13.4167 19.2625 13.4167 18.6667V15.4167H2.58332V18.6667ZM14.5 4.58333C13.9042 4.58333 13.4167 5.07083 13.4167 5.66667V2.41667C13.4167 1.225 12.4417 0.25 11.25 0.25H2.58332C1.39166 0.25 0.416656 1.225 0.416656 2.41667V8.7C0.416656 8.84083 0.42749 8.98167 0.45999 9.1225L1.32666 13.4558C1.42416 13.965 1.86832 14.3225 2.38832 14.3225H13.4167C14.0125 14.3225 14.5975 13.8458 14.7167 13.2608L15.5508 9.11167C15.5725 8.98167 15.5833 8.84083 15.5833 8.7V5.66667C15.5833 5.07083 15.0958 4.58333 14.5 4.58333ZM13.4167 8.48333C13.4167 8.62417 12.7233 12.1667 12.7233 12.1667H3.27666C3.27666 12.1667 2.58332 8.635 2.58332 8.48333V2.41667H11.25V7.83333H13.4167V8.48333Z" fill="#39495A"/>
</svg>
