<svg width="22" height="23" viewBox="0 0 22 23" fill="none" xmlns="http://www.w3.org/2000/svg">
<path d="M10.8333 0.666748C4.85333 0.666748 0 5.52008 0 11.5001C0 17.4801 4.85333 22.3334 10.8333 22.3334C16.8133 22.3334 21.6667 17.4801 21.6667 11.5001C21.6667 5.52008 16.8133 0.666748 10.8333 0.666748ZM11.9167 4.24175L13.3792 3.21258C15.3388 3.81984 17.02 5.1018 18.1242 6.83091L17.7017 8.28258L16.2392 8.78091L11.9167 5.75841V4.24175ZM8.2875 3.21258L9.75 4.24175V5.75841L5.4275 8.78091L3.965 8.28258L3.5425 6.83091C4.65313 5.10773 6.33184 3.82761 8.2875 3.21258ZM5.50333 17.0359L4.26833 17.1442C2.91032 15.5777 2.16395 13.5733 2.16667 11.5001C2.16667 11.3701 2.1775 11.2509 2.18833 11.1209L3.27167 10.3301L4.76667 10.8501L6.34833 15.5517L5.50333 17.0359ZM13.5417 19.7226C12.6858 20.0042 11.7758 20.1667 10.8333 20.1667C9.89083 20.1667 8.98083 20.0042 8.125 19.7226L7.3775 18.1084L8.07083 16.9167H13.6067L14.3 18.1192L13.5417 19.7226ZM13.2925 14.7501H8.37417L6.91167 10.3951L10.8333 7.64341L14.7658 10.3951L13.2925 14.7501ZM17.3983 17.1442L16.1633 17.0359L15.3075 15.5517L16.8892 10.8501L18.395 10.3409L19.4783 11.1317C19.4892 11.2509 19.5 11.3701 19.5 11.5001C19.5 13.6559 18.7092 15.6276 17.3983 17.1442Z" fill="#39495A"/>
</svg>
