<svg width="20" height="21" viewBox="0 0 20 21" fill="none" xmlns="http://www.w3.org/2000/svg">
<path d="M19.0025 1.4975C18.6558 1.14 16.9008 0.75 14.615 0.75C11.3325 0.75 6.93418 1.5625 3.99835 4.49833C-0.974155 9.47083 0.141679 18.6467 0.997512 19.5025C1.34418 19.86 3.09918 20.25 5.38501 20.25C8.66751 20.25 13.0658 19.4375 16.0017 16.5017C20.9742 11.5292 19.8583 2.35333 19.0025 1.4975ZM5.38501 18.0833C4.15001 18.0833 3.19668 17.9533 2.64418 17.8342C2.44918 16.9783 2.31918 15.44 2.46001 13.685L6.80418 18.0292C6.24085 18.0725 5.75335 18.0833 5.38501 18.0833ZM14.4742 14.9742C13.0333 16.415 11.1592 17.195 9.42585 17.6175L2.88251 11.0742C3.33751 9.25417 4.13918 7.42333 5.53668 6.03667C6.96668 4.60667 8.84085 3.82667 10.5633 3.40417L17.1175 9.95833C16.6625 11.7675 15.85 13.5875 14.4742 14.9742ZM17.54 7.3475L13.1742 2.98167C13.7375 2.9275 14.2358 2.91667 14.615 2.91667C15.85 2.91667 16.8033 3.04667 17.3558 3.16583C17.5508 4.02167 17.6808 5.57083 17.54 7.3475Z" fill="#39495A"/>
</svg>
